<?xml version="1.0" standalone="no"?>
<!DOCTYPE svg PUBLIC "-//W3C//DTD SVG 20010904//EN"
        "http://www.w3.org/TR/2001/REC-SVG-20010904/DTD/svg10.dtd">
<svg version="1.0" xmlns="http://www.w3.org/2000/svg"
     width="10000px" height="10000px" viewBox="0 0 10000 10000">

    <path d="M333 5988 c-5 7 -56 134 -112 283 -114 300 -135 344 -171 362 -15 7 -24 21 -24 34 0 19 5 22 47 21 26 0 74 -1 107 -1 56 -1 60 -3 60 -24 0 -17 -8 -25 -32 -32 -41 -12 -46 -39 -20 -115 l19 -55 119 -3 119 -3 21 73 c23 78 18 108 -16 108 -32 0 -50 11 -50 31 0 17 9 19 90 19 50 1 127 1 173 1 76 1 82 -1 85 -20 2 -14 -4 -24 -20 -30 -13 -5 -31 -18 -42 -29 -10 -12 -66 -153 -125 -315 -59 -161 -111 -299 -115 -305 -10 -16 -101 -15 -113 0z m42 270 c20 68 40 129 42 135 4 10 -18 13 -92 13 -73 0 -96 -3 -93 -13 39 -112 94 -257 99 -257 3 0 23 55 44 122z"/>
    <path d="M1027 5994 c-18 18 -6 45 23 50 54 11 55 15 55 304 0 288 -1 296 -53 302 -36 4 -45 48 -10 49 155 3 461 -4 499 -12 95 -20 159 -88 159 -166 0 -103 -66 -167 -195 -192 -23 -5 -33 -10 -25 -13 8 -3 37 -14 64 -23 27 -10 62 -30 79 -45 25 -22 31 -36 34 -81 8 -103 -56 -154 -211 -169 -108 -10 -410 -13 -419 -4z m424 82 c54 60 44 163 -19 196 -17 9 -57 17 -89 18 l-58 3 0 -113 c0 -135 7 -147 89 -139 40 3 55 11 77 35z m-9 288 c45 23 68 70 68 137 0 102 -46 150 -144 151 -77 0 -86 -17 -86 -173 0 -70 3 -131 8 -135 11 -12 121 3 154 20z"/>
    <path d="M2265 5992 c-72 23 -164 117 -195 197 -32 84 -32 225 -1 307 28 71 98 151 165 186 46 24 62 27 151 27 112 0 153 -15 211 -77 51 -53 92 -148 65 -148 -5 0 -16 -3 -25 -6 -11 -4 -20 5 -31 32 -38 90 -102 144 -173 144 -121 0 -180 -79 -189 -255 -10 -176 23 -293 96 -342 88 -59 196 -3 251 131 19 45 28 56 47 56 22 0 23 -3 23 -83 0 -45 -3 -106 -6 -135 -6 -46 -10 -52 -30 -52 -14 0 -25 8 -29 20 -4 12 -15 20 -29 20 -13 0 -49 -9 -81 -20 -70 -24 -151 -25 -220 -2z"/>
    <path d="M3007 5993 c-18 17 -6 44 23 50 58 11 60 22 60 303 0 280 -3 296 -58 302 -21 2 -27 8 -27 27 l0 23 220 -1 c238 -1 291 -9 369 -55 102 -59 150 -157 150 -301 0 -201 -113 -321 -326 -345 -94 -11 -401 -13 -411 -3z m453 72 c24 12 43 33 60 67 24 46 25 58 25 214 0 156 -1 168 -25 214 -32 63 -78 89 -161 90 -97 1 -94 11 -94 -303 0 -284 2 -295 48 -304 36 -8 110 3 147 22z"/>
    <path d="M4082 5973 c2 20 10 29 32 34 16 5 33 14 37 21 5 7 9 132 9 278 0 146 -4 271 -9 278 -4 7 -21 16 -37 21 -19 5 -30 15 -32 29 l-3 21 278 3 c153 2 304 2 335 0 l57 -3 5 -52 c3 -29 7 -85 10 -125 l5 -72 -28 0 c-24 0 -29 5 -40 50 -15 57 -49 103 -93 126 -69 36 -221 40 -253 7 -12 -11 -15 -44 -15 -145 l0 -131 46 6 c62 7 96 33 114 90 12 37 20 47 38 47 22 0 22 -1 22 -165 l0 -165 -25 0 c-15 0 -25 6 -25 15 0 8 -7 33 -16 55 -19 48 -55 70 -114 70 l-40 0 0 -113 c0 -61 4 -118 9 -125 22 -36 173 -36 242 -1 47 23 85 69 100 119 10 34 16 40 40 40 l27 0 -4 -78 c-3 -42 -7 -96 -10 -120 l-5 -42 -330 0 -330 0 3 27z"/>
    <path d="M5112 5973 c2 20 10 29 32 34 16 5 33 14 37 21 10 15 12 528 3 552 -3 8 -21 20 -40 26 -23 8 -34 18 -34 30 0 23 46 27 233 22 115 -3 118 -4 115 -25 -2 -15 -13 -23 -37 -28 -18 -4 -37 -13 -42 -21 -5 -7 -9 -70 -9 -141 l0 -127 30 0 c71 0 116 38 134 112 5 21 12 28 31 28 l25 0 0 -165 0 -165 -24 0 c-20 0 -25 7 -34 43 -15 60 -50 89 -112 95 l-50 5 0 -116 c0 -131 5 -141 69 -152 46 -8 138 8 181 30 36 18 77 77 86 123 6 27 11 32 36 32 l29 0 -7 -108 c-3 -59 -7 -113 -10 -120 -2 -9 -76 -12 -324 -12 l-321 0 3 27z"/>
    <path d="M6320 6001 c-147 45 -241 183 -242 353 0 118 30 203 99 279 99 109 288 132 413 49 41 -27 46 -28 62 -14 9 9 18 26 20 38 2 16 11 22 36 24 l32 3 0 -140 c0 -152 6 -171 56 -171 19 0 24 -5 24 -25 l0 -25 -171 0 c-169 0 -170 0 -167 22 2 14 13 24 31 29 48 13 57 27 57 88 -1 118 -59 179 -159 168 -35 -4 -52 -13 -77 -40 -43 -47 -54 -89 -61 -232 -11 -244 47 -355 184 -355 74 0 133 41 169 119 25 52 33 60 57 60 l27 1 0 -120 0 -120 -29 0 c-21 0 -32 6 -36 20 -8 25 -32 25 -113 0 -65 -20 -164 -25 -212 -11z"/>
    <path d="M7122 5973 c2 20 10 29 32 34 16 5 33 14 37 21 5 7 9 132 9 278 0 146 -4 271 -9 278 -4 7 -21 16 -37 21 -19 5 -30 15 -32 29 -3 22 -2 22 168 22 170 0 171 0 168 -22 -2 -14 -13 -24 -32 -29 -16 -5 -33 -14 -37 -21 -5 -7 -9 -68 -9 -136 l0 -122 120 0 120 0 0 122 c0 68 -4 129 -9 136 -4 7 -21 16 -37 21 -19 5 -30 15 -32 29 -3 21 0 21 151 24 85 2 162 1 171 0 29 -6 15 -45 -18 -53 -16 -5 -33 -14 -37 -21 -5 -7 -9 -132 -9 -278 0 -146 4 -271 9 -278 4 -7 21 -16 37 -21 22 -5 30 -14 32 -34 l3 -27 -171 0 -171 0 3 27 c2 20 10 29 32 34 16 5 33 14 37 21 5 7 9 64 9 125 l0 113 -120 0 -120 0 0 -113 c0 -61 4 -118 9 -125 4 -7 21 -16 37 -21 22 -5 30 -14 32 -34 l3 -27 -171 0 -171 0 3 27z"/>
    <path d="M8204 5985 c-10 25 3 43 33 47 49 5 53 29 53 298 0 272 -3 288 -58 302 -26 7 -33 14 -30 29 3 20 10 21 173 21 165 0 170 -1 173 -21 3 -17 -3 -23 -28 -27 -58 -12 -60 -22 -60 -304 0 -280 3 -296 58 -302 21 -2 27 -8 27 -28 l0 -25 -168 -3 c-142 -2 -168 0 -173 13z"/>
    <path d="M9022 5973 c2 21 9 29 28 31 59 8 60 13 60 279 0 256 -6 298 -48 329 -20 16 -61 18 -82 4 -12 -8 -11 -13 9 -34 51 -54 14 -146 -60 -146 -45 0 -89 48 -89 97 0 91 73 142 200 143 113 0 198 -46 231 -125 9 -20 14 -106 16 -260 2 -127 6 -240 8 -252 4 -15 16 -25 38 -31 25 -6 33 -14 35 -35 l3 -27 -176 0 -176 0 3 27z"/>
    <path d="M9692 5973 c2 20 10 29 32 34 16 5 33 14 37 21 5 7 9 132 9 278 0 146 -4 271 -9 278 -4 7 -21 16 -37 21 -21 5 -30 14 -32 32 l-3 24 168 -2 168 -2 0 -23 c0 -17 -7 -24 -30 -28 -43 -7 -55 -39 -55 -152 0 -93 1 -97 27 -118 14 -11 30 -19 34 -18 17 6 190 253 187 267 -2 8 -18 19 -36 25 -21 6 -32 15 -32 27 0 22 32 25 218 21 132 -3 132 -3 132 -27 0 -14 -7 -26 -18 -29 -30 -10 -85 -73 -208 -241 l-117 -159 84 -79 c84 -78 130 -108 182 -121 20 -5 27 -12 27 -31 l0 -25 -155 0 -155 0 0 24 c0 20 7 26 38 33 28 7 38 14 40 33 3 20 -18 45 -114 137 -65 62 -122 113 -126 113 -13 0 -9 -222 5 -250 8 -15 24 -27 42 -30 24 -4 30 -10 30 -30 l0 -25 -168 -3 -168 -2 3 27z"/>
    <path d="M10732 5973 c2 19 10 29 23 31 11 2 28 11 38 20 15 14 17 40 17 282 0 242 -2 268 -17 282 -10 9 -27 18 -38 20 -12 2 -21 13 -23 26 -3 17 2 22 20 22 74 2 612 -1 614 -3 1 -1 6 -62 10 -135 l7 -132 -25 0 c-22 0 -27 7 -41 60 -28 100 -82 147 -189 164 -38 7 -114 -6 -130 -22 -14 -14 -11 -552 3 -568 6 -7 23 -14 37 -16 21 -2 27 -8 27 -28 l0 -25 -168 -3 -168 -2 3 27z"/>
    <path d="M11674 5985 c-10 26 4 44 38 47 54 5 58 23 58 298 0 276 -3 292 -60 300 -29 4 -35 9 -35 29 0 22 3 23 58 23 31 0 87 -1 123 -1 62 -1 65 -2 62 -23 -2 -16 -12 -24 -36 -29 -19 -4 -38 -11 -42 -15 -9 -9 -12 -150 -10 -444 l1 -155 95 285 c51 157 99 303 105 325 15 55 25 64 62 58 18 -3 32 -6 33 -6 0 -1 45 -150 100 -330 l99 -328 3 286 c1 180 -1 293 -8 305 -6 11 -23 20 -43 22 -24 2 -33 8 -35 25 -3 22 -1 23 92 23 53 1 133 1 179 1 80 1 82 0 82 -23 0 -19 -6 -24 -32 -26 -61 -6 -63 -18 -63 -302 0 -276 4 -300 53 -300 32 0 50 -15 45 -36 -3 -17 -16 -19 -156 -22 -150 -2 -152 -2 -162 20 -5 13 -37 115 -71 228 -34 113 -64 209 -67 215 -4 5 -41 -96 -83 -225 l-76 -235 -152 -3 c-128 -2 -152 0 -157 13z"/>
    <path d="M119 4825 c-9 37 -2 50 29 53 60 6 62 18 62 302 0 279 -4 300 -56 300 -24 0 -48 34 -37 52 2 5 58 8 124 8 l119 0 0 -25 c0 -20 -7 -26 -39 -35 -21 -5 -42 -17 -45 -26 -3 -9 -6 -117 -6 -241 l0 -225 216 281 216 281 39 0 39 0 0 -314 c0 -173 3 -321 6 -330 3 -9 24 -21 45 -26 31 -9 39 -15 39 -34 0 -24 -1 -24 -120 -24 l-120 0 0 29 c0 25 4 29 29 29 58 0 61 12 61 227 l0 196 -46 -59 c-25 -32 -109 -141 -187 -240 l-141 -182 -113 -1 c-62 0 -113 2 -114 4z"/>

    <path d="M1430 4831 c-171 56 -271 233 -240 428 20 125 85 218 192 275 37 20 58 23 143 23 89 0 106 -3 150 -27 61 -31 130 -104 155 -161 65 -148 40 -333 -62 -443 -65 -70 -125 -97 -228 -100 -47 -2 -96 0 -110 5z m175 74 c43 43 54 86 61 232 7 131 -6 253 -32 308 -43 90 -175 90 -218 -1 -25 -52 -39 -192 -32 -317 7 -137 19 -180 61 -222 28 -28 40 -33 80 -33 40 0 52 5 80 33z"/>
    <path d="M2200 4799 c0 24 4 29 24 29 52 0 56 21 56 305 0 143 -4 266 -9 273 -4 7 -21 16 -37 21 -22 5 -30 14 -32 34 l-3 27 178 -2 178 -3 0 -25 c0 -21 -6 -26 -39 -31 -38 -6 -55 -21 -56 -49 0 -8 -2 -58 -5 -111 l-4 -96 122 -6 c148 -7 215 -26 262 -72 38 -39 50 -81 43 -154 -13 -136 -116 -170 -500 -170 l-178 0 0 30z m425 33 c45 19 69 66 69 137 1 97 -41 134 -163 145 l-71 7 0 -130 c0 -130 6 -154 40 -166 29 -10 91 -7 125 7z"/>
    <path d="M3414 4822 c-139 49 -224 182 -224 346 0 130 43 235 123 299 75 61 103 71 206 74 l94 2 13 37 c21 62 56 89 113 89 56 0 92 -21 129 -75 20 -30 21 -36 8 -48 -13 -13 -19 -13 -51 2 -42 20 -67 15 -94 -21 l-20 -25 47 -46 c181 -177 134 -518 -86 -623 -65 -31 -188 -36 -258 -11z m176 47 c59 31 80 116 79 318 -1 78 -4 155 -8 172 l-7 30 -16 -31 c-21 -39 -56 -62 -105 -69 -46 -7 -103 19 -118 52 -18 42 -25 24 -26 -65 -3 -243 6 -322 44 -375 33 -47 101 -61 157 -32z m-12 515 c28 41 29 86 3 100 -11 5 -38 10 -61 10 -91 0 -127 -111 -47 -145 41 -17 78 -5 105 35z"/>
    <path d="M4200 4799 c0 24 4 29 24 29 55 0 57 7 54 308 l-3 277 -35 11 c-27 9 -36 18 -38 38 l-3 26 176 0 176 0 -3 -27 c-2 -22 -10 -29 -37 -34 -18 -4 -37 -13 -42 -21 -5 -7 -9 -71 -9 -142 l0 -128 64 4 c101 6 120 32 137 176 13 113 29 149 76 168 50 21 144 15 174 -12 27 -24 49 -74 49 -114 0 -25 -4 -30 -25 -30 -20 0 -25 5 -25 26 0 36 -17 64 -40 64 -26 0 -29 -7 -40 -96 -14 -109 -34 -142 -107 -181 l-61 -31 36 -7 c54 -10 114 -39 141 -69 34 -37 40 -118 12 -164 -49 -77 -116 -93 -418 -97 l-233 -4 0 30z m453 57 c29 30 32 38 32 96 0 54 -4 69 -23 89 -27 28 -89 47 -156 47 l-46 0 0 -115 c0 -104 2 -117 21 -136 18 -18 30 -21 81 -17 50 4 64 9 91 36z"/>
    <path d="M5407 4830 c-82 25 -136 105 -137 201 0 113 65 183 222 234 153 51 180 72 180 143 0 28 -7 43 -31 64 -91 81 -234 18 -310 -137 -29 -60 -34 -66 -59 -63 l-27 3 3 85 c1 47 5 111 8 142 5 53 8 58 30 58 14 0 24 -6 24 -14 0 -7 7 -19 15 -26 11 -9 30 -7 92 14 211 70 363 -14 363 -202 0 -126 -58 -188 -230 -247 -62 -21 -125 -49 -141 -63 -26 -21 -30 -31 -27 -65 2 -34 9 -45 37 -64 85 -57 200 -3 265 125 13 25 23 32 39 30 20 -3 21 -7 18 -108 -1 -58 -5 -108 -7 -112 -10 -15 -39 -8 -52 13 -15 23 -27 22 -97 -5 -43 -16 -133 -19 -178 -6z"/>
    <path d="M6116 4762 c-3 37 -6 97 -6 134 0 65 1 68 24 68 20 0 25 -7 35 -56 19 -97 58 -141 139 -159 l32 -7 0 290 c0 321 2 314 -65 326 -30 6 -36 11 -33 29 3 22 5 22 188 22 173 0 185 -1 188 -19 4 -21 -13 -36 -44 -36 -11 0 -28 -8 -37 -18 -15 -16 -17 -52 -17 -305 l0 -286 38 6 c72 10 125 73 137 165 6 42 10 48 31 48 24 0 24 -1 24 -104 0 -57 -3 -117 -6 -134 l-6 -31 -308 0 -307 1 -7 66z"/>

    <path d="M7060 4800 c0 26 4 30 29 30 16 0 33 6 39 12 6 8 12 107 14 238 5 254 13 288 76 353 50 52 118 71 231 65 112 -5 171 -32 212 -95 41 -66 49 -122 49 -343 0 -215 4 -230 56 -230 20 0 24 -5 24 -30 l0 -31 -107 3 c-108 3 -108 3 -108 28 0 20 6 26 28 28 15 2 32 12 38 23 7 13 9 98 7 242 -3 247 -11 281 -72 318 -43 26 -140 26 -183 -1 -63 -38 -68 -59 -71 -318 -4 -250 -2 -258 46 -264 21 -2 27 -8 27 -28 l0 -25 -167 -2 -168 -3 0 30z"/>
    <path d="M8060 4802 c0 22 7 30 30 39 38 14 45 31 176 390 l99 273 51 0 51 0 112 -303 c61 -166 119 -313 129 -327 10 -14 28 -29 40 -35 15 -6 22 -19 22 -36 l0 -26 -107 1 -108 1 0 25 c0 18 6 26 21 28 12 2 30 12 39 22 17 19 15 28 -55 230 -40 115 -76 210 -79 210 -10 -1 -151 -397 -151 -424 0 -20 7 -27 33 -34 25 -6 32 -14 32 -33 l0 -24 -167 -2 -168 -3 0 28z"/>
    <path d="M9020 4800 c0 19 6 29 19 33 11 2 26 18 34 33 11 22 112 358 185 617 4 15 13 17 50 15 l46 -3 75 -252 c41 -139 76 -251 79 -249 2 3 32 116 66 253 l62 248 46 3 47 3 40 -128 c22 -70 63 -205 92 -298 60 -196 71 -222 104 -237 18 -8 25 -19 25 -38 l0 -28 -88 -1 c-104 -2 -122 3 -122 35 0 18 5 24 23 24 30 0 47 18 47 50 0 22 -86 337 -107 390 -3 8 -30 -80 -59 -195 -34 -133 -51 -215 -46 -225 5 -8 20 -17 33 -20 17 -4 24 -13 24 -30 l0 -25 -129 -3 c-71 -2 -140 -1 -153 3 -36 9 -30 42 12 59 55 23 54 44 -6 252 -29 101 -55 184 -58 184 -7 0 -101 -377 -101 -402 0 -10 11 -25 26 -34 16 -11 24 -24 22 -38 -3 -20 -9 -21 -145 -22 l-143 -2 0 28z"/>
    <path d="M10210 4805 c0 20 7 26 38 34 21 6 50 23 64 38 38 41 200 282 196 291 -8 21 -157 191 -196 225 -25 21 -57 41 -73 44 -24 4 -29 11 -29 35 l0 29 142 -3 c131 -3 143 -5 146 -22 4 -21 -13 -36 -44 -36 -29 0 -47 -24 -39 -50 6 -20 120 -163 133 -167 8 -3 109 138 125 175 9 20 8 27 -8 38 -10 8 -29 14 -42 14 -18 0 -23 6 -23 25 l0 25 188 -2 c183 -3 187 -3 190 -25 2 -16 -4 -24 -31 -32 -45 -15 -66 -40 -186 -213 l-102 -148 85 -102 c92 -112 113 -129 166 -138 29 -4 35 -10 35 -30 l0 -25 -140 0 c-137 0 -140 1 -143 22 -3 18 4 24 37 33 23 6 41 17 41 24 0 15 -40 75 -86 130 l-31 37 -51 -73 c-65 -96 -68 -110 -20 -122 30 -8 37 -14 34 -30 -3 -20 -9 -21 -189 -23 l-187 -2 0 24z"/>
    <path d="M11173 4814 c-8 22 4 44 25 44 29 0 54 34 162 214 l101 169 -6 96 c-6 99 -16 121 -56 121 -33 0 -49 12 -49 36 l0 24 192 -2 c180 -3 193 -4 196 -22 5 -22 -13 -36 -45 -36 -13 0 -32 -9 -43 -20 -17 -17 -20 -33 -20 -113 l0 -93 101 -165 c110 -180 129 -204 166 -214 18 -4 23 -11 21 -28 -3 -21 -7 -22 -128 -22 l-125 0 0 25 c0 19 6 26 31 30 44 10 54 18 54 47 0 24 -126 253 -139 253 -10 -1 -151 -245 -151 -261 0 -23 21 -39 51 -39 21 0 28 -6 31 -25 3 -14 3 -27 -1 -29 -3 -2 -86 -4 -184 -4 -143 0 -180 3 -184 14z"/>
    <path d="M12217 4797 c-3 18 -9 76 -13 130 l-6 99 27 -4 c23 -2 30 -10 40 -45 33 -113 92 -153 223 -153 l82 0 -201 301 c-155 234 -199 306 -197 327 l3 27 284 3 c157 1 288 -1 292 -5 5 -5 11 -63 15 -131 l7 -122 -25 0 c-22 0 -27 7 -36 43 -28 110 -87 149 -234 155 -54 3 -98 2 -98 -2 0 -3 87 -138 194 -299 122 -183 196 -303 198 -322 l3 -30 -277 -2 -276 -1 -5 31z"/>

    <path d="M275 2794 c-63 16 -92 30 -126 61 -45 41 -56 78 -35 126 11 28 23 38 51 46 50 13 91 4 115 -27 24 -30 25 -51 3 -97 -22 -46 -8 -60 58 -59 40 0 55 6 76 27 24 24 27 35 31 114 l4 89 -87 12 c-196 29 -295 102 -295 219 0 56 37 114 90 141 77 40 183 19 269 -54 18 -14 33 -25 34 -23 2 2 9 17 17 32 29 57 117 74 190 37 70 -36 76 -84 9 -74 l-39 7 0 -184 c0 -101 -5 -204 -11 -229 -26 -113 -95 -161 -243 -166 -50 -2 -100 -1 -111 2z m175 398 c0 110 -35 166 -102 166 -77 0 -112 -75 -68 -147 21 -35 44 -50 105 -69 65 -20 65 -20 65 50z"/>
    <path d="M1280 3078 c-25 5 -81 12 -125 16 -73 6 -80 9 -83 30 -3 18 3 25 27 33 20 7 33 20 37 36 4 14 7 208 8 432 l1 406 23 3 c15 2 40 -12 79 -47 l57 -49 33 29 c58 50 92 63 168 64 81 0 125 -18 178 -72 144 -143 116 -472 -48 -568 -86 -51 -207 -41 -265 20 -13 14 -26 25 -29 25 -3 0 -6 -81 -5 -180 0 -100 -2 -182 -5 -184 -3 -1 -26 1 -51 6z m229 382 c35 37 51 108 51 227 0 138 -14 205 -50 241 -49 49 -106 35 -142 -35 -18 -34 -22 -64 -26 -162 -7 -202 26 -295 107 -295 27 0 44 7 60 24z"/>
    <path d="M2415 2791 c-135 35 -226 145 -241 291 -13 128 25 233 112 309 121 106 323 89 434 -37 l42 -47 -22 -17 c-22 -18 -23 -17 -72 27 -65 59 -115 73 -175 50 -77 -30 -105 -100 -106 -265 0 -128 14 -183 58 -227 29 -29 40 -33 85 -33 53 0 90 13 90 32 0 5 -13 26 -30 45 -38 42 -40 84 -5 118 36 37 97 35 137 -5 28 -28 30 -36 26 -80 -10 -100 -93 -161 -227 -166 -42 -2 -89 0 -106 5z"/>
    <path d="M3715 3080 c-22 4 -86 11 -143 15 l-103 7 3 27 c3 23 9 27 46 32 63 8 64 13 64 169 1 121 3 116 -33 81 -59 -59 -178 -67 -263 -17 -155 91 -193 390 -71 550 16 20 49 49 74 64 38 23 58 27 118 27 63 0 76 -3 115 -30 23 -17 52 -45 63 -63 11 -17 22 -31 25 -32 3 0 5 24 5 52 -2 81 1 88 38 77 16 -5 70 -12 119 -15 l88 -7 0 -28 c0 -25 -4 -29 -29 -29 -56 0 -56 5 -59 -462 -2 -235 -6 -428 -10 -427 -4 1 -25 5 -47 9z m-198 375 c42 29 58 98 58 245 0 191 -29 260 -110 260 -57 0 -89 -50 -105 -167 -17 -130 3 -271 47 -324 28 -33 74 -39 110 -14z"/>
    <path d="M4439 2785 c-55 18 -131 82 -163 138 -73 129 -54 319 43 430 18 20 58 49 89 64 48 24 69 28 137 28 44 0 98 -6 119 -14 49 -17 121 -83 147 -133 l20 -38 -28 -11 c-23 -9 -30 -7 -38 7 -23 39 -82 98 -112 111 -121 50 -203 -32 -203 -204 l0 -63 193 -2 192 -3 -3 -45 c-6 -106 -69 -208 -155 -251 -53 -28 -174 -35 -238 -14z m165 78 c15 21 22 47 24 103 l4 74 -91 0 -91 0 0 -43 c1 -55 14 -111 35 -143 14 -21 23 -25 57 -22 31 2 46 10 62 31z"/>
    <path d="M5508 3076 c-117 25 -188 122 -196 267 l-5 79 -39 0 c-37 0 -39 2 -36 27 3 24 8 28 41 31 l37 3 0 202 c0 111 -3 212 -6 225 -4 12 -19 29 -35 38 -20 10 -29 22 -29 39 l0 25 180 0 180 0 0 -30 c0 -28 -2 -30 -40 -30 -29 0 -42 -5 -50 -19 -6 -12 -10 -106 -10 -235 l0 -216 75 0 75 0 0 -30 0 -30 -76 0 -76 0 4 -119 c3 -103 6 -124 24 -148 26 -35 94 -47 94 -16 0 10 -7 27 -15 37 -21 27 -19 59 6 90 27 35 86 36 125 3 21 -18 27 -32 27 -64 0 -103 -114 -161 -255 -129z"/>
    <path d="M6564 2860 c-11 4 -37 27 -56 50 l-36 41 -53 -15 c-140 -42 -289 0 -353 98 -48 75 -31 195 36 251 l30 25 -42 38 c-35 31 -43 45 -47 82 -6 52 19 94 70 115 l30 12 -51 17 c-135 45 -135 171 -2 238 142 72 402 53 507 -36 52 -46 66 -81 61 -156 -8 -111 -81 -158 -256 -166 -235 -10 -261 -17 -248 -67 8 -32 42 -44 96 -36 89 14 224 -16 281 -63 77 -63 80 -205 6 -286 -19 -21 -20 -24 -4 -39 14 -14 22 -15 55 -5 80 24 112 12 112 -44 0 -23 -7 -38 -22 -48 -24 -17 -80 -20 -114 -6z m-195 136 c33 23 51 74 51 141 0 92 -46 163 -106 163 -31 0 -76 -33 -90 -65 -19 -45 -18 -158 1 -195 30 -58 95 -78 144 -44z m91 617 c86 42 88 111 5 152 -51 24 -196 33 -260 15 -112 -31 -131 -121 -36 -170 63 -33 220 -31 291 3z"/>
    <path d="M7250 3079 c-19 5 -74 11 -122 15 -87 7 -88 7 -88 33 0 20 7 29 28 37 21 8 31 20 35 44 4 18 7 175 7 350 0 175 -3 332 -7 350 -4 24 -14 36 -35 44 -21 8 -28 17 -28 38 l0 28 160 0 160 0 0 -29 c0 -22 -6 -30 -25 -35 -34 -9 -37 -29 -33 -223 4 -190 13 -221 74 -251 32 -15 38 -15 62 -2 14 9 29 26 33 40 11 39 10 376 -1 405 -5 14 -21 30 -35 35 -18 7 -25 17 -25 35 l0 25 160 0 160 0 0 -30 c0 -19 -5 -30 -14 -30 -8 0 -22 -10 -30 -22 -13 -18 -16 -55 -16 -198 0 -245 -22 -325 -95 -356 -74 -31 -164 -9 -238 56 l-37 32 0 -195 c0 -108 -3 -198 -7 -200 -5 -2 -24 0 -43 4z"/>
    <path d="M8310 2794 c-14 2 -60 6 -102 9 -78 7 -78 7 -78 35 0 22 5 29 22 32 41 6 48 40 48 238 0 234 -4 260 -42 274 -21 8 -28 17 -28 38 l0 28 160 0 160 0 0 -30 c0 -19 -5 -30 -14 -30 -8 0 -22 -10 -30 -22 -14 -19 -16 -65 -16 -300 l0 -278 -27 1 c-16 1 -39 3 -53 5z m-76 -282 c-35 16 -64 51 -64 79 0 111 182 128 214 20 10 -33 -20 -82 -59 -99 -42 -17 -51 -17 -91 0z"/>
    <path d="M9035 2794 c-11 2 -69 6 -128 9 l-108 7 3 27 c3 23 7 26 50 29 35 2 51 8 58 23 7 13 10 139 8 373 l-3 354 -25 27 c-27 29 -78 33 -71 5 11 -43 4 -83 -18 -101 -55 -45 -141 -6 -141 63 0 74 58 111 170 111 92 0 164 -28 214 -84 62 -68 66 -100 66 -496 l0 -353 -27 1 c-16 1 -37 3 -48 5z m-92 -282 c-45 20 -67 58 -59 101 9 46 46 70 107 70 74 0 123 -58 99 -119 -18 -49 -93 -75 -147 -52z"/>
    <path d="M9805 3083 c-6 2 -62 9 -125 16 -114 12 -115 13 -118 40 -3 21 1 27 17 27 51 0 51 4 51 400 0 322 -2 371 -16 384 -8 9 -22 16 -30 16 -9 0 -14 11 -14 30 l0 30 160 0 160 0 0 -25 c0 -18 -7 -28 -25 -35 -34 -13 -45 -47 -45 -139 0 -63 4 -81 18 -94 10 -10 21 -17 24 -17 13 0 149 220 143 230 -4 6 -18 15 -31 20 -17 7 -24 17 -24 35 l0 25 170 0 170 0 0 -25 c0 -17 -9 -29 -29 -39 -16 -9 -50 -48 -77 -88 -131 -200 -175 -270 -172 -278 8 -24 157 -132 196 -143 37 -10 42 -15 42 -39 l0 -28 -155 0 -155 0 0 30 c0 25 4 30 24 30 25 0 56 23 56 42 0 12 -42 54 -138 136 l-62 54 -2 -299 c-2 -196 -6 -299 -13 -296z"/>
    <path d="M10795 3073 c-44 6 -101 12 -127 12 -46 1 -48 2 -48 28 0 22 8 31 33 43 l32 15 3 364 c2 314 0 367 -13 388 -9 12 -22 23 -30 23 -10 0 -15 10 -15 30 l0 30 160 0 160 0 0 -30 c0 -18 -5 -30 -13 -30 -7 0 -22 -6 -33 -14 -18 -14 -19 -33 -24 -443 l-5 -428 -80 12z"/>
    <path d="M11500 2793 c-19 1 -63 6 -98 9 -61 6 -63 7 -60 32 2 18 10 28 23 30 44 9 45 13 45 258 0 198 -2 235 -16 248 -8 9 -22 16 -30 16 -9 0 -14 11 -14 30 l0 30 160 0 160 0 0 -29 c0 -23 -6 -30 -25 -35 -41 -10 -47 -45 -42 -216 6 -197 26 -251 103 -266 39 -7 63 12 74 61 13 53 13 357 0 389 -5 14 -20 28 -35 32 -19 5 -25 12 -25 35 l0 29 160 0 160 0 0 -29 c0 -22 -6 -30 -25 -35 -34 -9 -37 -29 -33 -223 3 -154 5 -171 26 -204 29 -48 75 -68 110 -48 15 8 29 25 33 39 4 14 7 108 8 210 1 153 -2 189 -15 208 -8 12 -22 22 -30 22 -9 0 -14 11 -14 30 l0 30 155 0 155 0 0 -30 c0 -19 -5 -30 -14 -30 -35 0 -41 -29 -46 -244 -5 -200 -6 -214 -30 -261 -33 -66 -74 -88 -153 -82 -65 6 -130 39 -172 89 -21 25 -28 29 -36 17 -5 -8 -9 -19 -9 -25 0 -13 -47 -58 -77 -73 -62 -32 -180 5 -245 77 l-38 42 0 -70 0 -70 -27 2 c-16 0 -44 3 -63 5z"/>
    <path d="M78 1313 l-78 4 0 29 c0 23 5 31 25 36 14 3 30 14 35 24 13 24 13 431 1 463 -6 14 -21 27 -36 31 -21 5 -26 12 -23 34 l3 27 158 3 157 3 0 -31 c0 -16 -4 -30 -10 -30 -5 0 -19 -9 -30 -20 -18 -18 -20 -33 -20 -171 0 -171 11 -227 51 -270 23 -25 35 -30 66 -27 59 5 63 22 63 256 l0 203 -30 17 c-22 12 -30 24 -30 45 l0 28 158 -3 157 -3 3 -26 c2 -21 -3 -29 -26 -38 -39 -16 -42 -34 -42 -245 0 -204 -11 -258 -65 -305 -32 -27 -43 -31 -97 -31 -74 0 -134 27 -184 82 -19 21 -36 38 -39 38 -3 0 -5 -29 -5 -65 l0 -65 -42 2 c-24 1 -78 4 -120 5z"/>

    <path d="M1263 1290 c-68 34 -110 80 -145 157 -18 39 -23 67 -23 148 0 87 3 107 26 156 96 205 363 248 508 82 117 -132 114 -359 -8 -486 -58 -62 -103 -80 -206 -85 -85 -3 -94 -2 -152 28z m177 35 c46 24 55 67 55 275 0 152 -3 192 -17 222 -30 67 -97 75 -139 18 -27 -36 -42 -165 -35 -300 7 -137 18 -182 53 -210 31 -24 45 -25 83 -5z"/>
    <path d="M2185 1311 c-76 6 -80 7 -83 31 -2 20 5 28 30 40 l33 15 3 355 c1 195 0 365 -3 378 -3 12 -17 27 -30 32 -18 7 -25 17 -25 35 l0 25 175 0 175 0 0 -23 c0 -19 -8 -25 -37 -33 -53 -13 -63 -39 -63 -168 l0 -110 33 31 c48 46 76 56 144 56 117 0 210 -76 248 -203 25 -81 17 -245 -14 -310 -51 -108 -124 -160 -224 -160 -71 0 -120 20 -163 66 l-34 35 0 -50 0 -51 -42 2 c-24 1 -79 4 -123 7z m329 73 c14 6 36 32 48 57 21 41 23 61 23 186 0 82 -5 157 -12 180 -33 109 -127 125 -175 31 -25 -50 -39 -189 -28 -289 16 -138 69 -200 144 -165z"/>
    <path d="M3728 1279 l-58 51 -35 -31 c-56 -49 -100 -63 -181 -59 -58 3 -80 9 -120 33 -95 59 -141 176 -132 336 6 102 35 176 93 233 50 50 97 69 170 69 67 0 117 -20 152 -61 l23 -27 0 118 c0 65 -4 127 -10 137 -6 11 -26 21 -50 25 -34 6 -40 11 -40 31 l0 24 175 0 175 0 0 -30 c0 -19 -5 -30 -14 -30 -8 0 -22 -7 -30 -16 -14 -13 -16 -66 -16 -430 0 -245 -4 -414 -9 -414 -5 0 -15 -2 -23 -5 -7 -2 -39 18 -70 46z m-148 57 c40 40 53 99 54 237 0 89 -5 134 -18 172 -40 120 -137 123 -183 5 -14 -37 -18 -75 -18 -177 0 -102 4 -140 18 -177 34 -87 95 -111 147 -60z"/>
    <path d="M4350 1311 c-73 6 -75 7 -78 33 -2 20 1 28 12 28 9 0 25 9 36 20 19 19 20 33 20 245 0 212 -1 226 -20 245 -11 11 -26 20 -34 20 -10 0 -14 9 -13 27 l2 28 175 0 175 0 3 -28 c3 -24 0 -27 -27 -27 -18 0 -40 -9 -52 -21 -20 -20 -21 -29 -17 -192 3 -161 5 -176 30 -229 40 -86 96 -105 83 -27 -6 33 -3 42 19 64 36 36 88 34 127 -4 47 -48 36 -124 -23 -162 -26 -16 -45 -19 -89 -17 -63 4 -96 25 -138 86 l-26 37 -3 -68 -3 -67 -42 2 c-23 1 -76 4 -117 7z"/>
    <path d="M5321 1309 c-76 31 -121 96 -121 179 0 104 61 161 254 236 64 25 116 73 116 108 0 35 -39 73 -83 81 -73 14 -148 -35 -198 -130 -20 -37 -29 -45 -51 -45 l-28 0 0 115 c0 110 1 115 21 115 11 0 28 -9 38 -21 l17 -21 69 22 c119 37 239 26 298 -28 60 -54 78 -188 34 -253 -28 -42 -105 -89 -212 -130 -103 -40 -145 -71 -145 -108 0 -53 66 -90 136 -76 42 7 116 71 134 115 10 24 19 30 41 30 l29 0 0 -100 c0 -97 -1 -100 -23 -100 -12 0 -30 9 -39 19 -16 19 -17 19 -78 0 -65 -20 -169 -24 -209 -8z"/>
    <path d="M6307 1553 c-4 3 -7 13 -7 22 0 9 -13 43 -29 77 -29 62 -96 130 -138 140 -17 5 -23 13 -23 35 0 26 3 29 34 29 l34 0 4 237 c4 200 7 245 22 281 26 60 65 85 135 85 115 0 179 -67 196 -206 l7 -57 -30 0 c-28 0 -30 3 -37 47 -9 62 -31 103 -54 103 -42 0 -46 -21 -46 -259 l0 -226 73 -3 c73 -3 73 -3 70 -30 -3 -26 -4 -27 -73 -27 l-70 0 -3 -128 -3 -127 -28 0 c-15 0 -31 3 -34 7z"/>
    <path d="M7000 1311 c-82 6 -85 7 -88 31 -2 20 5 28 30 40 l33 15 5 220 c5 210 6 222 30 269 35 69 66 89 137 89 70 0 111 -19 176 -81 l47 -46 0 63 0 64 92 -7 c50 -3 104 -6 120 -6 24 0 28 -4 28 -28 0 -21 -7 -30 -28 -38 -21 -8 -31 -20 -35 -44 -4 -18 -7 -149 -7 -292 l0 -259 -117 6 c-142 8 -143 8 -143 38 0 19 8 26 33 33 l32 10 3 174 c3 192 -4 238 -46 282 -19 21 -35 28 -64 28 -63 0 -68 -23 -68 -320 l0 -250 -42 2 c-24 1 -81 4 -128 7z"/>
    <path d="M7960 1277 c0 20 7 30 24 37 14 5 32 19 40 32 14 21 92 213 191 471 l37 98 50 -3 50 -3 107 -265 c127 -313 123 -306 161 -325 22 -12 30 -23 30 -43 l0 -28 -117 1 -116 0 -4 26 c-3 22 1 28 24 34 38 9 53 23 53 49 0 20 -97 285 -118 322 -9 15 -31 -39 -117 -282 -22 -62 -17 -80 25 -89 26 -6 31 -11 28 -33 l-3 -25 -173 -1 -172 -1 0 28z"/>
    <path d="M8950 1277 c0 19 7 31 24 38 33 16 43 38 150 334 l94 260 40 3 c50 4 48 8 127 -221 32 -92 60 -165 64 -162 3 4 31 90 62 193 l55 187 46 3 46 3 35 -93 c20 -51 68 -176 106 -277 71 -186 88 -216 129 -232 18 -7 23 -15 20 -37 l-3 -27 -112 -1 -113 0 0 26 c0 20 8 30 33 41 22 10 33 22 35 39 3 28 -102 328 -110 314 -16 -29 -100 -325 -95 -337 3 -8 19 -17 37 -20 27 -6 31 -10 28 -34 l-3 -28 -157 -1 -158 0 0 28 c0 21 6 31 26 38 16 6 32 26 44 54 l20 44 -47 136 c-26 74 -48 134 -50 133 -13 -14 -122 -335 -118 -349 3 -9 19 -20 36 -23 25 -6 30 -11 27 -33 l-3 -26 -158 -1 -157 0 0 28z"/>
    <path d="M10255 1295 c-7 24 0 45 16 50 37 12 73 52 150 166 l80 119 -80 98 c-55 69 -93 105 -125 123 -39 20 -46 28 -44 49 3 25 3 25 126 28 l122 3 0 -29 c0 -23 -6 -30 -32 -37 -18 -6 -34 -17 -36 -26 -2 -9 21 -46 51 -82 61 -75 55 -76 115 15 40 58 40 77 2 91 -25 9 -30 17 -28 37 l3 25 179 0 179 0 4 -27 c3 -21 -2 -28 -19 -33 -38 -12 -77 -55 -160 -178 l-79 -118 28 -37 c79 -104 144 -171 178 -182 27 -9 35 -17 35 -35 0 -29 -22 -33 -149 -30 -94 3 -96 4 -99 28 -3 20 2 25 27 30 45 9 41 43 -15 111 l-47 57 -43 -65 c-51 -75 -54 -93 -18 -102 20 -5 24 -12 22 -33 l-3 -26 -169 0 c-104 0 -170 4 -171 10z"/>
    <path d="M11213 1297 c-9 15 9 48 37 62 34 17 57 57 145 245 37 80 87 187 111 237 l43 92 -40 80 c-22 44 -54 91 -71 106 -32 27 -66 30 -59 4 13 -46 11 -66 -9 -92 -16 -20 -30 -27 -55 -27 -47 0 -64 8 -80 41 -23 44 -19 85 14 121 24 27 36 32 88 36 92 7 147 -27 208 -129 19 -31 90 -194 159 -363 68 -169 132 -316 142 -328 11 -11 29 -24 42 -29 18 -7 23 -15 20 -36 l-3 -27 -105 -1 c-124 -1 -130 0 -130 30 0 18 8 26 35 35 19 6 37 20 40 30 5 16 -87 281 -105 303 -8 9 -131 -270 -133 -302 -2 -20 5 -27 31 -34 27 -9 33 -14 30 -36 l-3 -25 -173 0 c-96 -1 -176 2 -179 7z"/>
    <path d="M12275 1299 c-2 3 -7 51 -11 107 l-7 102 35 0 c31 0 36 -4 41 -28 18 -83 79 -125 178 -120 l59 3 -34 55 c-18 30 -91 147 -160 259 -94 150 -126 210 -124 230 l3 26 263 3 c205 2 263 0 266 -10 3 -7 7 -59 11 -116 l6 -102 -34 0 c-31 0 -35 3 -41 32 -17 89 -73 128 -185 128 -39 0 -71 -2 -71 -6 0 -3 72 -120 160 -260 150 -239 180 -302 148 -305 -48 -4 -501 -3 -503 2z"/>

    <path d="M300 8000 c-63 16 -92 30 -126 61 -45 41 -56 78 -35 126 11 28 23 38 51 46 50 13 91 4 115 -27 24 -30 25 -51 3 -97 -22 -46 -8 -60 58 -59 40 0 55 6 76 27 24 24 27 35 31 114 l4 89 -87 12 c-196 29 -295 102 -295 219 0 56 37 114 90 141 77 40 183 19 269 -54 18 -14 33 -25 34 -23 2 2 9 17 17 32 29 57 117 74 190 37 70 -36 76 -84 9 -74 l-39 7 0 -184 c0 -101 -5 -204 -11 -229 -26 -113 -95 -161 -243 -166 -50 -2 -100 -1 -111 2z m175 398 c0 110 -35 166 -102 166 -77 0 -112 -75 -68 -147 21 -35 44 -50 105 -69 65 -20 65 -20 65 50z m-300 -690 c-45 20 -67 58 -59 101 9 46 46 70 107 70 74 0 123 -58 99 -119 -18 -49 -93 -75 -147 -52z m400 0 c-45 20 -67 58 -59 101 9 46 46 70 107 70 74 0 123 -58 99 -119 -18 -49 -93 -75 -147 -52z"/>

    <path d="M1300 8000 c-68 34 -110 80 -145 157 -18 39 -23 67 -23 148 0 87 3 107 26 156 96 205 363 248 508 82 117 -132 114 -359 -8 -486 -58 -62 -103 -80 -206 -85 -85 -3 -94 -2 -152 28z m177 35 c46 24 55 67 55 275 0 152 -3 192 -17 222 -30 67 -97 75 -139 18 -27 -36 -42 -165 -35 -300 7 -137 18 -182 53 -210 31 -24 45 -25 83 -5z m-300 -320 c-45 20 -67 58 -59 101 9 46 46 70 107 70 74 0 123 -58 99 -119 -18 -49 -93 -75 -147 -52z m400 0 c-45 20 -67 58 -59 101 9 46 46 70 107 70 74 0 123 -58 99 -119 -18 -49 -93 -75 -147 -52z"/>

    <path d="M2300 8000 c-82 6 -85 7 -88 31 -2 20 5 28 30 40 l33 15 5 220 c5 210 6 222 30 269 35 69 66 89 137 89 70 0 111 -19 176 -81 l47 -46 0 63 0 64 92 -7 c50 -3 104 -6 120 -6 24 0 28 -4 28 -28 0 -21 -7 -30 -28 -38 -21 -8 -31 -20 -35 -44 -4 -18 -7 -149 -7 -292 l0 -259 -117 6 c-142 8 -143 8 -143 38 0 19 8 26 33 33 l32 10 3 174 c3 192 -4 238 -46 282 -19 21 -35 28 -64 28 -63 0 -68 -23 -68 -320 l0 -250 -42 2 c-24 1 -81 4 -128 7z m-20 -282 c-45 20 -67 58 -59 101 9 46 46 70 107 70 74 0 123 -58 99 -119 -18 -49 -93 -75 -147 -52z m400 0 c-45 20 -67 58 -59 101 9 46 46 70 107 70 74 0 123 -58 99 -119 -18 -49 -93 -75 -147 -52z"/>

    <path d="M4300 8000 c-5 7 -56 134 -112 283 -114 300 -135 344 -171 362 -15 7 -24 21 -24 34 0 19 5 22 47 21 26 0 74 -1 107 -1 56 -1 60 -3 60 -24 0 -17 -8 -25 -32 -32 -41 -12 -46 -39 -20 -115 l19 -55 119 -3 119 -3 21 73 c23 78 18 108 -16 108 -32 0 -50 11 -50 31 0 17 9 19 90 19 50 1 127 1 173 1 76 1 82 -1 85 -20 2 -14 -4 -24 -20 -30 -13 -5 -31 -18 -42 -29 -10 -12 -66 -153 -125 -315 -59 -161 -111 -299 -115 -305 -10 -16 -101 -15 -113 0z m42 270 c20 68 40 129 42 135 4 10 -18 13 -92 13 -73 0 -96 -3 -93 -13 39 -112 94 -257 99 -257 3 0 23 55 44 122z m-220 -500 c-45 20 -67 58 -59 101 9 46 46 70 107 70 74 0 123 -58 99 -119 -18 -49 -93 -75 -147 -52z m400 0 c-45 20 -67 58 -59 101 9 46 46 70 107 70 74 0 123 -58 99 -119 -18 -49 -93 -75 -147 -52z"/>

    <path d="M5300 8000 c-171 56 -271 233 -240 428 20 125 85 218 192 275 37 20 58 23 143 23 89 0 106 -3 150 -27 61 -31 130 -104 155 -161 65 -148 40 -333 -62 -443 -65 -70 -125 -97 -228 -100 -47 -2 -96 0 -110 5z m175 74 c43 43 54 86 61 232 7 131 -6 253 -32 308 -43 90 -175 90 -218 -1 -25 -52 -39 -192 -32 -317 7 -137 19 -180 61 -222 28 -28 40 -33 80 -33 40 0 52 5 80 33z m-355 -282 c-45 20 -67 58 -59 101 9 46 46 70 107 70 74 0 123 -58 99 -119 -18 -49 -93 -75 -147 -52z m400 0 c-45 20 -67 58 -59 101 9 46 46 70 107 70 74 0 123 -58 99 -119 -18 -49 -93 -75 -147 -52z"/>

    <path d="M6300 8000 c0 26 4 30 29 30 16 0 33 6 39 12 6 8 12 107 14 238 5 254 13 288 76 353 50 52 118 71 231 65 112 -5 171 -32 212 -95 41 -66 49 -122 49 -343 0 -215 4 -230 56 -230 20 0 24 -5 24 -30 l0 -31 -107 3 c-108 3 -108 3 -108 28 0 20 6 26 28 28 15 2 32 12 38 23 7 13 9 98 7 242 -3 247 -11 281 -72 318 -43 26 -140 26 -183 -1 -63 -38 -68 -59 -71 -318 -4 -250 -2 -258 46 -264 21 -2 27 -8 27 -28 l0 -25 -167 -2 -168 -3 0 30z m110 -282 c-45 20 -67 58 -59 101 9 46 46 70 107 70 74 0 123 -58 99 -119 -18 -49 -93 -75 -147 -52z m400 0 c-45 20 -67 58 -59 101 9 46 46 70 107 70 74 0 123 -58 99 -119 -18 -49 -93 -75 -147 -52z"/>
    <path d="M7300 8500 c-45 20 -67 58 -59 101 9 46 46 70 107 70 74 0 123 -58 99 -119 -18 -49 -93 -75 -147 -52z"/>
    <path d="M7800 8920 v-34 q80 -26 124 -82 44 -55 44 -117 0 -14 -7 -25 -5 -7 -10 -7 -8 0 -37 15 -14 7 -29 7 -38 0 -60 -22 -22 -22 -22 -62 0 -38 28 -65 29 -27 71 -27 51 0 91 45 40 44 40 118 0 80 -56 149 -55 69 -176 109z"/>
    <path d="M8500 8500 c-45 20 -67 58 -59 101 9 46 46 70 107 70 74 0 123 -58 99 -119 -18 -49 -93 -75 -147 -52z m0 -400 c-45 20 -67 58 -59 101 9 46 46 70 107 70 74 0 123 -58 99 -119 -18 -49 -93 -75 -147 -52z"/>
    <path d="M9000 8920 v-34 q80 -26 124 -82 44 -55 44 -117 0 -14 -7 -25 -5 -7 -10 -7 -8 0 -37 15 -14 7 -29 7 -38 0 -60 -22 -22 -22 -22 -62 0 -38 28 -65 29 -27 71 -27 51 0 91 45 40 44 40 118 0 80 -56 149 -55 69 -176 109z m35 -830 c-45 20 -67 58 -59 101 9 46 46 70 107 70 74 0 123 -58 99 -119 -18 -49 -93 -75 -147 -52z"/>

    <path d="M505 9764 c-25 -2 -49 -3 -71 -3 h-285 c-22 0 -46 1 -71 3 v-32 c4 0 10 0 19 0 9 0 15 0 20 0 53 0 84 -7 92 -22 3 -6 4 -15 4 -28 v-575 c-38 19 -86 28 -143 28 v-33 c88 0 155 -23 200 -70 h5 c10 0 16 2 18 7 1 2 1 9 1 20 v626 c0 11 1 20 4 26 5 11 25 18 61 21 4 0 28 0 71 0 v32z"/>
    <path d="M1084 9773 h-439 v-9 c0 -11 4 -22 12 -31 l211 -235 c76 -85 115 -167 115 -244 0 -49 -12 -90 -36 -123 -26 -37 -63 -56 -111 -56 -34 0 -64 10 -91 30 -26 20 -46 47 -57 80 2 0 5 0 9 0 42 0 64 19 64 57 0 16 -5 29 -16 41 -10 11 -24 16 -40 16 -39 0 -58 -20 -58 -61 0 -55 20 -102 61 -141 40 -38 89 -58 145 -58 65 0 119 19 164 57 46 40 69 92 69 156 0 41 -13 81 -40 120 -15 22 -44 54 -87 95 l-200 266 h220 c47 0 75 -2 82 -8 7 -5 15 -38 24 -98z"/>
    <path d="M1635 9564 c0 60 -24 111 -72 153 -46 39 -100 58 -161 58 -55 0 -105 -14 -149 -43 -49 -32 -74 -75 -74 -129 0 -18 5 -34 16 -46 11 -11 26 -18 44 -18 17 0 32 5 44 17 11 11 17 26 17 44 0 18 -6 32 -18 43 -12 11 -27 16 -44 16 -3 0 -7 0 -10 0 16 26 40 48 73 63 29 13 61 20 95 20 44 0 77 -20 98 -61 16 -32 25 -72 25 -120 0 -51 -9 -92 -26 -123 -22 -39 -56 -59 -104 -59 h-57 c-11 0 -17 -4 -17 -12 0 -7 8 -12 25 -14 11 -0 23 -0 34 -1 43 -2 76 -21 97 -57 20 -33 30 -75 30 -125 0 -35 -8 -65 -25 -87 -18 -24 -45 -37 -80 -37 -68 0 -117 22 -147 68 45 -0 68 17 68 55 0 16 -5 29 -15 40 -10 10 -23 15 -39 15 -16 0 -30 -5 -41 -15 -10 -10 -15 -24 -15 -41 0 -46 21 -84 65 -112 38 -25 81 -37 130 -37 50 0 94 12 134 37 45 28 68 67 68 114 0 44 -15 84 -46 121 -28 34 -64 58 -109 73 51 10 94 33 128 68 36 37 55 81 55 131z"/>
    <path d="M2193 9588 h-110 v103 c0 10 1 19 4 25 6 13 40 19 102 19 v33 c-29 -2 -54 -3 -75 -3 h-150 c-19 0 -44 1 -73 3 v-33 c16 0 27 0 33 0 38 0 61 -6 68 -20 3 -5 4 -14 4 -25 v-103 h-293 v-33 l338 -517 c5 -8 13 -13 22 -13 8 0 14 3 16 9 0 2 1 8 1 20 v501 h110 v33z m-188 -33 v-410 l-269 410z"/>
    <path d="M2710 9530 c0 67 -23 124 -70 173 -46 48 -103 72 -170 72 -54 0 -101 -19 -140 -59 -39 -39 -58 -87 -58 -141 0 -39 17 -58 53 -58 15 0 28 5 39 15 10 10 16 23 16 38 0 15 -5 28 -16 38 -10 10 -23 15 -39 15 -6 0 -12 -0 -18 -2 10 35 30 65 61 88 30 23 64 35 100 35 51 0 90 -23 118 -71 17 -29 25 -80 25 -151 0 -62 -6 -109 -19 -138 -20 -47 -52 -70 -94 -70 -31 0 -59 7 -84 22 -15 9 -31 23 -47 42 -13 15 -21 22 -24 22 -10 0 -15 -7 -15 -21 v-343 c0 -12 3 -18 10 -18 3 0 7 1 13 3 58 21 107 32 147 32 47 0 97 -10 149 -32 4 -1 7 -2 9 -2 7 0 10 4 10 12 0 5 -6 15 -19 29 -50 56 -115 85 -193 85 -30 0 -61 -4 -93 -14 v214 c38 -37 85 -56 139 -56 61 0 112 25 152 76 37 47 56 102 56 165z"/>
    <path d="M3262 9527 c0 67 -20 124 -62 173 -43 50 -98 75 -164 75 -85 0 -147 -43 -186 -130 -29 -64 -43 -145 -43 -242 0 -72 13 -138 39 -198 29 -67 73 -118 129 -151 39 -23 79 -34 121 -34 39 0 71 9 97 28 28 21 42 51 42 89 0 15 -4 28 -14 38 -9 10 -21 15 -36 15 -14 0 -26 -4 -36 -14 -9 -9 -14 -22 -14 -36 0 -34 20 -50 60 -49 -20 -29 -52 -44 -96 -44 -28 0 -55 8 -82 24 -74 46 -111 154 -111 321 29 -72 75 -109 137 -109 64 0 118 25 160 75 40 47 60 104 60 170z m-98 28 v-55 c0 -56 -6 -98 -20 -125 -22 -45 -56 -68 -102 -68 -45 0 -80 22 -105 67 -20 36 -30 79 -30 129 0 72 6 125 20 159 9 23 23 43 42 58 20 16 43 24 67 24 49 0 85 -23 109 -71 12 -26 19 -65 19 -118z"/>
    <path d="M3811 9055 c0 11 -3 21 -10 31 l-149 209 c-33 46 -55 109 -67 188 -8 53 -12 132 -12 237 0 40 -16 60 -50 60 -33 0 -50 -20 -50 -60 0 -135 45 -273 135 -414 27 -38 68 -96 122 -174 h-264 c-41 0 -65 2 -71 6 -8 5 -17 38 -27 100 h-27 l36 -227 h27 c0 7 3 12 7 17 10 11 55 18 133 18 h268 v7z"/>
    <path d="M4345 9568 c0 59 -23 110 -70 150 -44 38 -97 57 -158 57 -59 0 -110 -16 -155 -49 -48 -36 -73 -83 -73 -140 0 -82 53 -150 159 -203 -19 -11 -46 -31 -81 -59 -32 -34 -48 -75 -48 -121 0 -52 20 -96 61 -132 39 -34 85 -51 138 -51 51 0 96 14 134 42 42 31 64 71 64 121 0 68 -44 125 -133 170 32 19 52 31 57 35 21 14 38 28 51 42 35 39 53 85 53 136z m-54 38 c0 -26 -8 -50 -24 -71 -11 -14 -31 -30 -58 -49 -27 -18 -72 -47 -136 -85 -86 47 -129 109 -129 185 0 45 17 84 53 115 34 29 74 44 121 44 43 0 82 -12 116 -36 38 -27 57 -61 57 -103z m-23 -424 c0 -39 -15 -72 -47 -99 -29 -25 -64 -38 -104 -38 -37 0 -70 9 -99 28 -33 21 -50 50 -50 85 0 32 18 61 56 88 10 7 55 37 135 88 73 -42 109 -93 109 -154z"/>
    <path d="M4887 9389 c0 61 -7 116 -23 165 -19 61 -50 111 -92 152 -47 46 -101 69 -160 69 -42 0 -77 -9 -104 -26 -32 -20 -48 -51 -48 -91 0 -35 16 -52 50 -52 14 0 26 4 36 14 9 9 14 21 14 36 0 15 -5 28 -17 38 -11 9 -24 13 -40 12 22 26 58 40 108 40 27 0 53 -8 78 -24 42 -27 71 -76 86 -145 9 -42 14 -100 14 -174 -28 73 -74 110 -138 110 -64 0 -118 -25 -160 -75 -40 -47 -60 -104 -60 -170 0 -71 23 -131 70 -179 44 -45 98 -68 162 -68 35 0 68 9 98 28 83 52 125 166 125 342z m-101 -101 c0 -71 -5 -122 -18 -155 -21 -58 -57 -88 -105 -88 -48 0 -85 23 -110 69 -15 28 -22 71 -22 130 v45 c0 56 6 98 19 125 22 46 56 69 103 69 45 0 80 -22 105 -68 19 -36 29 -79 29 -130z"/>
    <path d="M5484 9400 c0 109 -13 191 -41 248 -41 85 -105 128 -191 128 -79 0 -140 -36 -182 -110 -32 -57 -49 -146 -49 -265 0 -111 13 -194 40 -251 41 -87 105 -130 192 -130 83 0 146 40 187 122 29 58 43 144 43 259z m-91 53 v-137 c0 -76 -6 -134 -19 -174 -21 -67 -62 -100 -121 -100 -59 0 -99 33 -121 101 -13 40 -19 98 -19 174 0 14 0 35 0 64 0 28 0 49 0 64 0 84 5 147 17 190 20 77 61 116 122 116 60 0 101 -37 123 -112 11 -42 17 -104 17 -186z"/>


    <path d="M6178 8916 c-149 0 -246 61 -323 170 -13 19 -9 47 9 61 l80 61 c19 14 47 11 62 -7 47 -58 81 -92 155 -92 57 0 129 37 129 93 0 42 -34 64 -91 96 -66 37 -154 83 -154 199 v18 c0 24 20 45 45 45 h136 c24 0 45 -20 45 -45 v-10 c0 -80 235 -83 235 -301 0 -163 -170 -288 -329 -288z m-18 701 c-71 0 -130 58 -130 130 0 71 58 130 130 130 71 0 130 -58 130 -130 0 -71 -58 -130 -130 -130z"/>

</svg>
